<svg version="1.0" xmlns="http://www.w3.org/2000/svg" width="1212.000000pt" height="1212.000000pt" viewBox="0 0 1212.000000 1212.000000">
    <g transform="translate(0.000000,1212.000000) scale(0.100000,-0.100000)" fill="#000000" stroke="none">
        <path d="M6028 11595 c-90 -34 -168 -111 -196 -194 -19 -54 -15 -153 9 -216 39 -104 116 -201 352 -444 357 -366 577 -609 577 -635 0 -4 -1167 -7 -2592 -6 -2312 1 -2604 0 -2693 -14 -271 -43 -466 -136 -616 -294 -149 -156 -226 -314 -261 -532 -19 -123 -20 -6620 0 -6725 53 -290 202 -505 619 -898 113 -105 292 -286 397 -402 388 -422 547 -556 768 -644 135 -54 186 -61 563 -72 691 -21 5483 -12 6430 12 220 6 603 14 850 19 452 9 537 16 665 54 324 97 567 360 634 690 9 43 21 133 26 200 13 170 13 6358 0 6497 -13 141 -41 245 -94 354 -81 167 -148 249 -456 555 -158 157 -362 371 -455 475 -293 332 -424 456 -602 572 -230 152 -415 189 -880 181 -150 -3 -273 -3 -273 0 0 3 49 55 108 116 59 61 170 181 246 266 77 85 209 225 295 310 223 221 301 346 301 482 0 125 -52 211 -164 268 -61 31 -77 35 -145 35 -66 0 -86 -5 -142 -32 -83 -41 -172 -123 -296 -271 -98 -117 -387 -437 -668 -737 -82 -89 -189 -207 -237 -262 -131 -151 -232 -211 -339 -201 -96 10 -176 67 -307 221 -42 51 -126 144 -186 207 -143 151 -567 617 -683 750 -124 145 -238 249 -313 289 -52 28 -77 35 -134 38 -45 2 -85 -2 -108 -12z m2902 -2790 c73 -23 142 -91 159 -160 9 -36 10 -146 5 -439 -5 -322 -3 -429 11 -606 15 -193 16 -424 15 -2284 -1 -1398 -4 -2086 -12 -2120 -22 -109 -84 -171 -193 -196 -37 -9 -403 -12 -1370 -11 -726 1 -1696 -3 -2155 -8 -459 -6 -1388 -11 -2065 -12 l-1230 -3 -50 23 c-87 39 -124 89 -144 196 -8 41 -11 845 -11 2735 0 2328 2 2683 15 2726 16 53 56 99 115 130 34 18 122 19 2740 20 2552 1 3149 5 3315 24 39 5 234 7 435 5 309 -2 373 -6 420 -20z m1546 -251 c69 -35 154 -121 188 -190 65 -132 61 -11 61 -2044 0 -1473 -3 -1852 -13 -1881 -16 -45 -47 -74 -92 -87 -19 -5 -44 -13 -54 -18 -14 -5 -17 -4 -12 4 5 8 -2 12 -21 12 -71 0 -204 98 -260 192 -18 29 -43 92 -55 138 l-23 85 0 1845 0 1845 22 47 c41 90 143 111 259 52z m-7 -4961 c66 -32 156 -121 195 -193 70 -129 82 -256 69 -716 -8 -263 -11 -293 -29 -325 -48 -81 -140 -102 -243 -54 -69 32 -178 142 -213 215 -61 127 -63 150 -61 550 2 219 7 386 14 418 13 64 48 107 104 127 49 18 93 12 164 -22z"/>
        <path d="M7505 5889 c-221 -33 -412 -184 -483 -382 -37 -100 -38 -258 -4 -362 56 -168 175 -312 313 -379 93 -44 143 -55 244 -56 160 0 305 60 421 176 146 144 197 340 144 548 -78 304 -348 498 -635 455z m-57 -200 c53 -26 98 -91 108 -156 19 -129 -92 -238 -223 -218 -84 12 -152 101 -153 198 0 63 20 108 64 143 70 56 134 66 204 33z"/>
        <path d="M3270 5874 c-189 -50 -335 -190 -396 -381 -24 -75 -29 -244 -10 -333 37 -177 154 -336 297 -405 122 -58 242 -67 399 -29 306 74 490 351 436 654 -43 240 -230 450 -446 499 -64 15 -215 12 -280 -5z m17 -185 c98 -37 146 -186 90 -284 -46 -82 -171 -112 -259 -63 -124 70 -123 269 1 335 48 25 120 30 168 12z"/>
        <path d="M4670 4475 c0 -33 40 -142 75 -201 64 -109 207 -233 346 -299 134 -63 212 -79 399 -79 197 -1 276 16 435 94 186 91 320 232 391 412 43 110 142 98 -811 98 l-835 0 0 -25z"/>
    </g>
</svg>
